<svg xmlns="http://www.w3.org/2000/svg" width="604" height="602" viewBox="0 0 604 602" version="1.1"><path d="M 272.552 122.607 C 229.681 143.769, 194.018 161.570, 193.302 162.164 C 192.250 163.037, 192.004 180.193, 192.020 251.372 C 192.032 304.098, 192.438 342.312, 193.031 346.500 C 195.616 364.762, 209.201 378.592, 227.882 381.979 C 236.207 383.488, 245.252 382.006, 254 377.700 L 260.500 374.500 260.755 281.691 L 261.010 188.883 306.505 166.503 L 352 144.123 352 114.061 C 352 97.528, 351.663 84.030, 351.250 84.066 C 350.837 84.102, 315.423 101.446, 272.552 122.607 M 352 155.529 C 309.375 176.619, 273.938 194.370, 273.250 194.977 C 272.263 195.847, 272 221.611, 272 317.468 L 272 438.858 277.250 440.383 C 280.137 441.221, 324.464 454.048, 375.753 468.887 C 427.043 483.726, 469.905 496.153, 471.003 496.501 C 472.991 497.132, 473 496.610, 473 375.216 L 473 253.297 453.618 247.648 C 442.958 244.542, 433.733 242, 433.118 242 C 432.306 242, 432 224.898, 432 179.500 C 432 130.118, 431.738 117.019, 430.750 117.092 C 430.063 117.142, 394.625 134.439, 352 155.529 M 146.225 224.487 L 112.951 240.867 113.225 335.684 L 113.500 430.500 116.133 436 C 121.639 447.501, 130.188 455.236, 141.586 459.029 C 151.466 462.317, 163.826 461.550, 173.750 457.032 L 181 453.732 181 330.866 C 181 263.290, 180.662 208.024, 180.250 208.054 C 179.838 208.083, 164.526 215.478, 146.225 224.487 M 294.557 227.777 C 293.677 228.656, 293.909 428, 294.790 428 C 296.155 428, 380.176 388.634, 387 384.797 C 407.385 373.335, 422.524 353.157, 428.544 329.425 C 430.865 320.277, 431 318.194, 430.997 291.622 L 430.995 263.500 371.247 247.600 C 338.386 238.855, 307.813 230.692, 303.307 229.460 C 298.800 228.228, 294.863 227.471, 294.557 227.777" stroke="none" fill="#fcfbfc" fill-rule="evenodd"/><path d="M 268.445 3.444 C 179.376 14.181, 102.368 61.128, 53.525 134.466 C 29.224 170.955, 13.815 210.882, 6.911 255.254 C 4.225 272.519, 3.242 307.894, 4.953 325.724 C 13.647 416.317, 61.408 496.487, 136.466 546.475 C 172.955 570.776, 212.882 586.185, 257.254 593.089 C 274.519 595.775, 309.894 596.758, 327.724 595.047 C 418.317 586.353, 498.487 538.592, 548.475 463.534 C 572.776 427.045, 588.185 387.118, 595.089 342.746 C 597.775 325.481, 598.758 290.106, 597.047 272.276 C 588.353 181.683, 540.592 101.513, 465.534 51.525 C 429.067 27.239, 389.328 11.896, 344.746 4.891 C 327.709 2.214, 285.317 1.410, 268.445 3.444 M 272.552 122.607 C 229.681 143.769, 194.018 161.570, 193.302 162.164 C 192.250 163.037, 192.004 180.193, 192.020 251.372 C 192.032 304.098, 192.438 342.312, 193.031 346.500 C 195.616 364.762, 209.201 378.592, 227.882 381.979 C 236.207 383.488, 245.252 382.006, 254 377.700 L 260.500 374.500 260.755 281.691 L 261.010 188.883 306.505 166.503 L 352 144.123 352 114.061 C 352 97.528, 351.663 84.030, 351.250 84.066 C 350.837 84.102, 315.423 101.446, 272.552 122.607 M 352 155.529 C 309.375 176.619, 273.938 194.370, 273.250 194.977 C 272.263 195.847, 272 221.611, 272 317.468 L 272 438.858 277.250 440.383 C 280.137 441.221, 324.464 454.048, 375.753 468.887 C 427.043 483.726, 469.905 496.153, 471.003 496.501 C 472.991 497.132, 473 496.610, 473 375.216 L 473 253.297 453.618 247.648 C 442.958 244.542, 433.733 242, 433.118 242 C 432.306 242, 432 224.898, 432 179.500 C 432 130.118, 431.738 117.019, 430.750 117.092 C 430.063 117.142, 394.625 134.439, 352 155.529 M 146.225 224.487 L 112.951 240.867 113.225 335.684 L 113.500 430.500 116.133 436 C 121.639 447.501, 130.188 455.236, 141.586 459.029 C 151.466 462.317, 163.826 461.550, 173.750 457.032 L 181 453.732 181 330.866 C 181 263.290, 180.662 208.024, 180.250 208.054 C 179.838 208.083, 164.526 215.478, 146.225 224.487 M 294.557 227.777 C 293.677 228.656, 293.909 428, 294.790 428 C 296.155 428, 380.176 388.634, 387 384.797 C 407.385 373.335, 422.524 353.157, 428.544 329.425 C 430.865 320.277, 431 318.194, 430.997 291.622 L 430.995 263.500 371.247 247.600 C 338.386 238.855, 307.813 230.692, 303.307 229.460 C 298.800 228.228, 294.863 227.471, 294.557 227.777" stroke="none" fill="#fc3cf4" fill-rule="evenodd"/></svg>